<svg xmlns="http://www.w3.org/2000/svg" xmlns:xlink="http://www.w3.org/1999/xlink" fill="none" version="1.1" width="54" height="54" viewBox="0 0 54 54"><path d="M24.616285330444335,53.011234C25.934709330444335,54.329655,28.075832330444335,54.329655,29.394258330444337,53.011234L46.270101330444334,36.135395C47.588525330444334,34.816971,47.588525330444334,32.675846,46.270101330444334,31.357424C44.95167733044433,30.038998,42.810556330444335,30.038998,41.49212833044434,31.357424L30.375166330444337,42.47438L30.375166330444337,3.3751681C30.375166330444337,1.5082781,28.866888330444336,0,26.999998330444335,0C25.133108330444337,0,23.624830330444336,1.5082783,23.624830330444336,3.3751681L23.624830330444336,42.47438L12.507870230444336,31.357424C11.189445530444335,30.038998,9.048323130444336,30.038998,7.729898090444336,31.357424C6.411473070444336,32.675846,6.411473070444336,34.816971,7.729898090444336,36.135395L24.605737330444335,53.011234L24.616285330444335,53.011234Z" fill="#5A9D52" fill-opacity="1" style="mix-blend-mode:passthrough"/></svg>