<svg xmlns="http://www.w3.org/2000/svg" xmlns:xlink="http://www.w3.org/1999/xlink" fill="none" version="1.1" width="14" height="14" viewBox="0 0 14.000244140625 14.0001220703125"><path d="M0.46484798,5.8789601L5.8789601,0.46484798C6.1770091,0.1667984,6.5789666,0,7.0000639,0C7.4211612,0,7.8231187,0.1667984,8.1211681,0.46484798L13.53528,5.8789601C13.833329,6.1770091,14.000128,6.5789666,14.000128,7.0000639C14.000128,7.4211612,13.833329,7.8231187,13.53528,8.1211681L8.1211681,13.53528C7.8231187,13.833329,7.4211612,14.000128,7.0000639,14.000128C6.5789666,14.000128,6.1770091,13.833329,5.8789601,13.53528L0.46484798,8.1211681C0.1667984,7.8231187,0,7.4211612,0,7.0000639C0,6.5789666,0.1667984,6.1770091,0.46484798,5.8789601Z" fill="#FFF0B6" fill-opacity="1" style="mix-blend-mode:passthrough"/></svg>