<svg xmlns="http://www.w3.org/2000/svg" xmlns:xlink="http://www.w3.org/1999/xlink" fill="none" version="1.1" width="34" height="34" viewBox="0 0 34 34"><path d="M1.2691020338368224,12.578803027075196L4.6218925538368225,5.867318627075195C5.265297453836823,4.586410817075195,6.569816653836822,3.7777271270751953,8.004197153836824,3.7777271270751953L26.001834053836824,3.7777271270751953C27.430313053836823,3.7777271270751953,28.740732053836823,4.586410817075195,29.378236053836822,5.867318627075195L32.731025053836824,12.578803027075196C32.94352505383682,13.003804227075195,33.05568105383682,13.470126127075195,33.05568105383682,13.948253127075196C33.05568105383682,15.559717127075196,31.80428505383682,16.881944127075194,30.222335053836822,16.994097127075193L30.222335053836822,28.333376127075194C30.222335053836822,29.378174127075194,29.378236053836822,30.222273127075194,28.33344005383682,30.222273127075194C27.288644053836823,30.222273127075194,26.444543053836824,29.378174127075194,26.444543053836824,28.333376127075194L26.444543053836824,17.000000127075197L20.77785605383682,17.000000127075197L20.77785605383682,27.388929127075194C20.77785605383682,28.953171127075194,19.50875405383682,30.222273127075194,17.944513053836822,30.222273127075194L6.611136053836822,30.222273127075194C5.046894153836822,30.222273127075194,3.7777920538368224,28.953171127075194,3.7777920538368224,27.388929127075194L3.7777920538368224,16.994097127075193C2.1958417538368225,16.881944127075194,0.9444480538368225,15.559716127075195,0.9444480538368225,13.948252127075195C0.9444480538368225,13.476027527075196,1.0566012338368225,13.003803227075196,1.2691020338368224,12.578803027075196ZM7.555584053836823,17.000000127075197L7.555584053836823,23.611135127075194C7.555584053836823,24.130583127075194,7.9805856538368225,24.555584127075196,8.500032053836822,24.555584127075196L16.055616053836822,24.555584127075196C16.575061053836823,24.555584127075196,17.000064053836823,24.130583127075194,17.000064053836823,23.611135127075194L17.000064053836823,17.000000127075197L7.555584053836823,17.000000127075197Z" fill="#F2D26F" fill-opacity="1" style="mix-blend-mode:passthrough"/></svg>